#N canvas 435 23 1207 837 16;
#X obj 403 823 dac~;
#X obj 403 608 osc~;
#X obj 402 578 +~;
#X obj 397 479 osc~;
#X obj 400 537 *~;
#X obj 529 505 mtof~;
#X obj 397 450 mtof~;
#X obj 530 472 sig~;
#X obj 395 419 sig~;
#X obj 535 437 + 40;
#X obj 404 736 hip~ 40;
#X obj 403 648 *~;
#X obj 403 681 lop~ 2000;
#X obj 405 781 *~ 0.5;
#X obj 396 382 + 20;
#X obj 401 124 bng 15 250 50 0 empty empty empty 17 7 0 10 -262144
-1 -1;
#X obj 749 540 line~;
#X msg 806 376 1;
#X obj 400 53 tgl 15 0 empty empty empty 17 7 0 10 -262144 -1 -1 0
1;
#X obj 400 84 metro 200;
#X obj 400 18 r start;
#X obj 518 735 r volume;
#X obj 612 12 r tempo;
#X floatatom 612 97 5 0 0 0 - - -;
#X obj 612 68 expr 1-$f1;
#X obj 612 129 * 1000;
#X obj 612 158 + 50;
#X obj 677 346 i;
#X msg 682 421 0 \$1, f 8;
#X obj 862 198 r decay;
#X floatatom 865 234 5 0 0 0 - - -;
#X obj 865 266 * 1000;
#X obj 865 295 + 50;
#N canvas 0 22 450 278 (subpatch) 0;
#X array pitch1 16 float 3;
#A 0 0.82 0.42 0.15 0.4 0.5 0.65 0.61 0.78 0.75 0.9 0.38 0.14 0.42
0.58 0.72 0.07;
#X coords 0 1 16 0 200 140 1 0 0;
#X restore 867 456 graph;
#X msg 404 146 1;
#X obj 403 181 +;
#X floatatom 403 210 5 0 0 0 - - -;
#X obj 405 240 % 16;
#X obj 399 275 t f f b b, f 40;
#X obj 395 321 tabread pitch1;
#X obj 395 350 * 100;
#N canvas 0 22 450 278 (subpatch) 0;
#X array pitch2 16 float 3;
#A 0 0.52 0.64 0.08 0.14 0.39 0.35 0.13 0.64 0.41 0.92 0.57 0.19 0.47
0.31 0.56 0.43;
#X coords 0 1 16 0 200 140 1 0 0;
#X restore 869 644 graph;
#X obj 522 365 tabread pitch2;
#X obj 533 403 * 80;
#X obj 60 320 bng 15 250 50 0 empty empty empty 17 7 0 10 -262144 -1
-1;
#X msg 63 426 16;
#X obj 60 359 t b b;
#X msg 171 426 0;
#X obj 61 475 until;
#X obj 58 512 bng 15 250 50 0 empty empty empty 17 7 0 10 -262144 -1
-1;
#X msg 61 534 1;
#X obj 60 569 +;
#X floatatom 60 598 5 0 0 0 - - -;
#X obj 53 634 t b f;
#X obj 16 810 tabwrite pitch1;
#X obj 32 704 random 100;
#X obj 19 749 / 100;
#X obj 234 315 bng 15 250 50 0 empty empty empty 17 7 0 10 -262144
-1 -1;
#X msg 237 421 16;
#X obj 234 354 t b b;
#X msg 345 421 0;
#X obj 235 470 until;
#X obj 232 507 bng 15 250 50 0 empty empty empty 17 7 0 10 -262144
-1 -1;
#X msg 235 529 1;
#X obj 234 564 +;
#X floatatom 234 593 5 0 0 0 - - -;
#X obj 227 629 t b f;
#X obj 206 699 random 100;
#X obj 193 744 / 100;
#X obj 190 805 tabwrite pitch2;
#X obj 97 302 r randomize;
#X obj 43 37 cnv 15 200 250 main main Random_Synth_Party 20 12 0 15
-233017 -66577 0;
#X obj 60 66 tgl 50 0 start start_rcv empty 17 7 0 10 -258113 -261234
-1 0 1;
#X obj 60 150 vsl 50 128 0 1 0 1 volume volume_rcv volume 0 -9 0 10
-260097 -261682 -1 3000 1;
#X obj 119 151 vsl 50 128 0 1 0 1 tempo tempo_rcv tempo 0 -9 0 10 -260097
-261682 -1 11500 1;
#X obj 177 151 vsl 50 128 0 1 0 1 decay decay_rcv decay 0 -9 0 10 -260097
-261682 -1 700 1;
#X obj 176 65 bng 50 250 50 0 randomize randomize_rcv empty 17 7 0
10 -258113 -262130 -1;
#X connect 1 0 11 0;
#X connect 2 0 1 0;
#X connect 3 0 4 0;
#X connect 4 0 2 0;
#X connect 5 0 4 1;
#X connect 5 0 2 1;
#X connect 6 0 3 0;
#X connect 7 0 5 0;
#X connect 8 0 6 0;
#X connect 9 0 7 0;
#X connect 10 0 13 0;
#X connect 11 0 12 0;
#X connect 12 0 10 0;
#X connect 13 0 0 0;
#X connect 13 0 0 1;
#X connect 14 0 8 0;
#X connect 15 0 34 0;
#X connect 16 0 11 1;
#X connect 17 0 16 0;
#X connect 18 0 19 0;
#X connect 19 0 15 0;
#X connect 20 0 18 0;
#X connect 21 0 13 1;
#X connect 22 0 24 0;
#X connect 23 0 25 0;
#X connect 24 0 23 0;
#X connect 25 0 26 0;
#X connect 26 0 19 1;
#X connect 27 0 28 0;
#X connect 28 0 16 0;
#X connect 29 0 30 0;
#X connect 30 0 31 0;
#X connect 31 0 32 0;
#X connect 32 0 27 1;
#X connect 34 0 35 0;
#X connect 35 0 36 0;
#X connect 36 0 35 1;
#X connect 36 0 37 0;
#X connect 37 0 38 0;
#X connect 38 0 39 0;
#X connect 38 1 42 0;
#X connect 38 2 27 0;
#X connect 38 3 17 0;
#X connect 39 0 40 0;
#X connect 40 0 14 0;
#X connect 42 0 43 0;
#X connect 43 0 9 0;
#X connect 44 0 46 0;
#X connect 45 0 48 0;
#X connect 46 0 45 0;
#X connect 46 1 47 0;
#X connect 47 0 52 0;
#X connect 48 0 49 0;
#X connect 49 0 50 0;
#X connect 50 0 51 0;
#X connect 51 0 52 0;
#X connect 52 0 51 1;
#X connect 52 0 53 0;
#X connect 53 0 55 0;
#X connect 53 1 54 1;
#X connect 55 0 56 0;
#X connect 56 0 54 0;
#X connect 57 0 59 0;
#X connect 58 0 61 0;
#X connect 59 0 58 0;
#X connect 59 1 60 0;
#X connect 60 0 65 0;
#X connect 61 0 62 0;
#X connect 62 0 63 0;
#X connect 63 0 64 0;
#X connect 64 0 65 0;
#X connect 65 0 64 1;
#X connect 65 0 66 0;
#X connect 66 0 67 0;
#X connect 66 1 69 1;
#X connect 67 0 68 0;
#X connect 68 0 69 0;
#X connect 70 0 44 0;
#X connect 70 0 57 0;
